<svg xmlns="http://www.w3.org/2000/svg" viewBox="0 0 800 1000" preserveAspectRatio="xMidYMid slice">
    <rect width="800" height="1000" fill="#e8dac7"></rect>
    
    <g opacity="0.04" stroke="#1a1410" stroke-width="1"><line x1="30" y1="120" x2="30" y2="900"></line><line x1="70" y1="120" x2="70" y2="900"></line><line x1="110" y1="120" x2="110" y2="900"></line><line x1="150" y1="120" x2="150" y2="900"></line><line x1="190" y1="120" x2="190" y2="900"></line><line x1="230" y1="120" x2="230" y2="900"></line><line x1="270" y1="120" x2="270" y2="900"></line><line x1="310" y1="120" x2="310" y2="900"></line><line x1="350" y1="120" x2="350" y2="900"></line><line x1="390" y1="120" x2="390" y2="900"></line><line x1="430" y1="120" x2="430" y2="900"></line><line x1="470" y1="120" x2="470" y2="900"></line><line x1="510" y1="120" x2="510" y2="900"></line><line x1="550" y1="120" x2="550" y2="900"></line><line x1="590" y1="120" x2="590" y2="900"></line><line x1="630" y1="120" x2="630" y2="900"></line><line x1="670" y1="120" x2="670" y2="900"></line><line x1="710" y1="120" x2="710" y2="900"></line><line x1="750" y1="120" x2="750" y2="900"></line><line x1="790" y1="120" x2="790" y2="900"></line></g>
    <ellipse cx="400" cy="850" rx="120" ry="14" fill="#1a1410" opacity="0.12"></ellipse>
    
    <rect x="344" y="450" width="112" height="360" fill="#1a1410"></rect>
    
    <rect x="340" y="450" width="120" height="14" fill="#c9a96e"></rect>
    <rect x="344" y="660" width="112" height="8" fill="#8a6b3a" opacity="0.5"></rect>
    
    <rect x="360" y="330" width="80" height="130" fill="#8a6b3a"></rect>
    
    <path d="M 364 350 L 436 350 L 428 280 Q 420 240 388 270 Q 364 310 364 350 Z" fill="#8a6b3a"></path>
    <path d="M 372 350 L 428 350" stroke="#1a1410" stroke-width="0.5" opacity="0.3"></path>
  
    <text x="56" y="92" font-family="Georgia, &#39;Cormorant Garamond&#39;, serif" font-style="italic" font-size="34" fill="#c9a96e">N° 16</text>
    <text x="56" y="952" font-family="system-ui,sans-serif" font-size="14" fill="#1a1410" opacity="0.55" letter-spacing="3">BAUME KARITÉ</text>
    <text x="744" y="952" text-anchor="end" font-family="system-ui,sans-serif" font-size="11" fill="#1a1410" opacity="0.45" letter-spacing="3">DIDALLAH · DAKAR</text>
  </svg>