<svg xmlns="http://www.w3.org/2000/svg" viewBox="0 0 800 1000" preserveAspectRatio="xMidYMid slice">
    <rect width="800" height="1000" fill="#e8dac7"></rect>
    
    <g opacity="0.05" fill="#1a1410"><circle cx="50" cy="130" r="2"></circle><circle cx="120" cy="130" r="2"></circle><circle cx="190" cy="130" r="2"></circle><circle cx="260" cy="130" r="2"></circle><circle cx="330" cy="130" r="2"></circle><circle cx="400" cy="130" r="2"></circle><circle cx="470" cy="130" r="2"></circle><circle cx="540" cy="130" r="2"></circle><circle cx="610" cy="130" r="2"></circle><circle cx="680" cy="130" r="2"></circle><circle cx="750" cy="130" r="2"></circle><circle cx="50" cy="190" r="2"></circle><circle cx="120" cy="190" r="2"></circle><circle cx="190" cy="190" r="2"></circle><circle cx="260" cy="190" r="2"></circle><circle cx="330" cy="190" r="2"></circle><circle cx="400" cy="190" r="2"></circle><circle cx="470" cy="190" r="2"></circle><circle cx="540" cy="190" r="2"></circle><circle cx="610" cy="190" r="2"></circle><circle cx="680" cy="190" r="2"></circle><circle cx="750" cy="190" r="2"></circle><circle cx="50" cy="250" r="2"></circle><circle cx="120" cy="250" r="2"></circle><circle cx="190" cy="250" r="2"></circle><circle cx="260" cy="250" r="2"></circle><circle cx="330" cy="250" r="2"></circle><circle cx="400" cy="250" r="2"></circle><circle cx="470" cy="250" r="2"></circle><circle cx="540" cy="250" r="2"></circle><circle cx="610" cy="250" r="2"></circle><circle cx="680" cy="250" r="2"></circle><circle cx="750" cy="250" r="2"></circle><circle cx="50" cy="310" r="2"></circle><circle cx="120" cy="310" r="2"></circle><circle cx="190" cy="310" r="2"></circle><circle cx="260" cy="310" r="2"></circle><circle cx="330" cy="310" r="2"></circle><circle cx="400" cy="310" r="2"></circle><circle cx="470" cy="310" r="2"></circle><circle cx="540" cy="310" r="2"></circle><circle cx="610" cy="310" r="2"></circle><circle cx="680" cy="310" r="2"></circle><circle cx="750" cy="310" r="2"></circle><circle cx="50" cy="370" r="2"></circle><circle cx="120" cy="370" r="2"></circle><circle cx="190" cy="370" r="2"></circle><circle cx="260" cy="370" r="2"></circle><circle cx="330" cy="370" r="2"></circle><circle cx="400" cy="370" r="2"></circle><circle cx="470" cy="370" r="2"></circle><circle cx="540" cy="370" r="2"></circle><circle cx="610" cy="370" r="2"></circle><circle cx="680" cy="370" r="2"></circle><circle cx="750" cy="370" r="2"></circle><circle cx="50" cy="430" r="2"></circle><circle cx="120" cy="430" r="2"></circle><circle cx="190" cy="430" r="2"></circle><circle cx="260" cy="430" r="2"></circle><circle cx="330" cy="430" r="2"></circle><circle cx="400" cy="430" r="2"></circle><circle cx="470" cy="430" r="2"></circle><circle cx="540" cy="430" r="2"></circle><circle cx="610" cy="430" r="2"></circle><circle cx="680" cy="430" r="2"></circle><circle cx="750" cy="430" r="2"></circle><circle cx="50" cy="490" r="2"></circle><circle cx="120" cy="490" r="2"></circle><circle cx="190" cy="490" r="2"></circle><circle cx="260" cy="490" r="2"></circle><circle cx="330" cy="490" r="2"></circle><circle cx="400" cy="490" r="2"></circle><circle cx="470" cy="490" r="2"></circle><circle cx="540" cy="490" r="2"></circle><circle cx="610" cy="490" r="2"></circle><circle cx="680" cy="490" r="2"></circle><circle cx="750" cy="490" r="2"></circle><circle cx="50" cy="550" r="2"></circle><circle cx="120" cy="550" r="2"></circle><circle cx="190" cy="550" r="2"></circle><circle cx="260" cy="550" r="2"></circle><circle cx="330" cy="550" r="2"></circle><circle cx="400" cy="550" r="2"></circle><circle cx="470" cy="550" r="2"></circle><circle cx="540" cy="550" r="2"></circle><circle cx="610" cy="550" r="2"></circle><circle cx="680" cy="550" r="2"></circle><circle cx="750" cy="550" r="2"></circle><circle cx="50" cy="610" r="2"></circle><circle cx="120" cy="610" r="2"></circle><circle cx="190" cy="610" r="2"></circle><circle cx="260" cy="610" r="2"></circle><circle cx="330" cy="610" r="2"></circle><circle cx="400" cy="610" r="2"></circle><circle cx="470" cy="610" r="2"></circle><circle cx="540" cy="610" r="2"></circle><circle cx="610" cy="610" r="2"></circle><circle cx="680" cy="610" r="2"></circle><circle cx="750" cy="610" r="2"></circle><circle cx="50" cy="670" r="2"></circle><circle cx="120" cy="670" r="2"></circle><circle cx="190" cy="670" r="2"></circle><circle cx="260" cy="670" r="2"></circle><circle cx="330" cy="670" r="2"></circle><circle cx="400" cy="670" r="2"></circle><circle cx="470" cy="670" r="2"></circle><circle cx="540" cy="670" r="2"></circle><circle cx="610" cy="670" r="2"></circle><circle cx="680" cy="670" r="2"></circle><circle cx="750" cy="670" r="2"></circle><circle cx="50" cy="730" r="2"></circle><circle cx="120" cy="730" r="2"></circle><circle cx="190" cy="730" r="2"></circle><circle cx="260" cy="730" r="2"></circle><circle cx="330" cy="730" r="2"></circle><circle cx="400" cy="730" r="2"></circle><circle cx="470" cy="730" r="2"></circle><circle cx="540" cy="730" r="2"></circle><circle cx="610" cy="730" r="2"></circle><circle cx="680" cy="730" r="2"></circle><circle cx="750" cy="730" r="2"></circle><circle cx="50" cy="790" r="2"></circle><circle cx="120" cy="790" r="2"></circle><circle cx="190" cy="790" r="2"></circle><circle cx="260" cy="790" r="2"></circle><circle cx="330" cy="790" r="2"></circle><circle cx="400" cy="790" r="2"></circle><circle cx="470" cy="790" r="2"></circle><circle cx="540" cy="790" r="2"></circle><circle cx="610" cy="790" r="2"></circle><circle cx="680" cy="790" r="2"></circle><circle cx="750" cy="790" r="2"></circle><circle cx="50" cy="850" r="2"></circle><circle cx="120" cy="850" r="2"></circle><circle cx="190" cy="850" r="2"></circle><circle cx="260" cy="850" r="2"></circle><circle cx="330" cy="850" r="2"></circle><circle cx="400" cy="850" r="2"></circle><circle cx="470" cy="850" r="2"></circle><circle cx="540" cy="850" r="2"></circle><circle cx="610" cy="850" r="2"></circle><circle cx="680" cy="850" r="2"></circle><circle cx="750" cy="850" r="2"></circle><circle cx="50" cy="910" r="2"></circle><circle cx="120" cy="910" r="2"></circle><circle cx="190" cy="910" r="2"></circle><circle cx="260" cy="910" r="2"></circle><circle cx="330" cy="910" r="2"></circle><circle cx="400" cy="910" r="2"></circle><circle cx="470" cy="910" r="2"></circle><circle cx="540" cy="910" r="2"></circle><circle cx="610" cy="910" r="2"></circle><circle cx="680" cy="910" r="2"></circle><circle cx="750" cy="910" r="2"></circle></g>
    <ellipse cx="400" cy="760" rx="180" ry="16" fill="#1a1410" opacity="0.12"></ellipse>
    
    <rect x="220" y="460" width="360" height="280" rx="10" fill="#e8d8b8"></rect>
    
    <rect x="235" y="480" width="14" height="240" fill="#f4ede4" opacity="0.3"></rect>
    
    <rect x="205" y="400" width="390" height="64" rx="8" fill="#8a6b3a"></rect>
    <rect x="205" y="448" width="390" height="12" fill="#1a1410" opacity="0.3"></rect>
    
    <rect x="270" y="520" width="260" height="160" fill="#f4ede4"></rect>
    <text x="400" y="564" text-anchor="middle" font-family="Georgia, serif" font-style="italic" font-size="26" fill="#1a1410">DiDallah</text>
    <line x1="340" y1="584" x2="460" y2="584" stroke="#8a6b3a" stroke-width="1.5"></line>
    <text x="400" y="618" text-anchor="middle" font-family="system-ui,sans-serif" font-size="10" letter-spacing="3.5" fill="#1a1410" opacity="0.7">KARITÉ BRUT</text>
    <text x="400" y="650" text-anchor="middle" font-family="system-ui,sans-serif" font-size="9" letter-spacing="3" fill="#1a1410" opacity="0.5">150 G — ARTISANAL</text>
  
    <text x="56" y="92" font-family="Georgia, &#39;Cormorant Garamond&#39;, serif" font-style="italic" font-size="34" fill="#c9a96e">N° 11</text>
    <text x="56" y="952" font-family="system-ui,sans-serif" font-size="14" fill="#1a1410" opacity="0.55" letter-spacing="3">BEURRE KARITÉ</text>
    <text x="744" y="952" text-anchor="end" font-family="system-ui,sans-serif" font-size="11" fill="#1a1410" opacity="0.45" letter-spacing="3">DIDALLAH · DAKAR</text>
  </svg>