<svg xmlns="http://www.w3.org/2000/svg" viewBox="0 0 800 1000" preserveAspectRatio="xMidYMid slice">
    <rect width="800" height="1000" fill="#f4ede4"></rect>
    
    <g opacity="0.04" fill="#1a1410"><circle cx="50" cy="130" r="2"></circle><circle cx="120" cy="130" r="2"></circle><circle cx="190" cy="130" r="2"></circle><circle cx="260" cy="130" r="2"></circle><circle cx="330" cy="130" r="2"></circle><circle cx="400" cy="130" r="2"></circle><circle cx="470" cy="130" r="2"></circle><circle cx="540" cy="130" r="2"></circle><circle cx="610" cy="130" r="2"></circle><circle cx="680" cy="130" r="2"></circle><circle cx="750" cy="130" r="2"></circle><circle cx="50" cy="190" r="2"></circle><circle cx="120" cy="190" r="2"></circle><circle cx="190" cy="190" r="2"></circle><circle cx="260" cy="190" r="2"></circle><circle cx="330" cy="190" r="2"></circle><circle cx="400" cy="190" r="2"></circle><circle cx="470" cy="190" r="2"></circle><circle cx="540" cy="190" r="2"></circle><circle cx="610" cy="190" r="2"></circle><circle cx="680" cy="190" r="2"></circle><circle cx="750" cy="190" r="2"></circle><circle cx="50" cy="250" r="2"></circle><circle cx="120" cy="250" r="2"></circle><circle cx="190" cy="250" r="2"></circle><circle cx="260" cy="250" r="2"></circle><circle cx="330" cy="250" r="2"></circle><circle cx="400" cy="250" r="2"></circle><circle cx="470" cy="250" r="2"></circle><circle cx="540" cy="250" r="2"></circle><circle cx="610" cy="250" r="2"></circle><circle cx="680" cy="250" r="2"></circle><circle cx="750" cy="250" r="2"></circle><circle cx="50" cy="310" r="2"></circle><circle cx="120" cy="310" r="2"></circle><circle cx="190" cy="310" r="2"></circle><circle cx="260" cy="310" r="2"></circle><circle cx="330" cy="310" r="2"></circle><circle cx="400" cy="310" r="2"></circle><circle cx="470" cy="310" r="2"></circle><circle cx="540" cy="310" r="2"></circle><circle cx="610" cy="310" r="2"></circle><circle cx="680" cy="310" r="2"></circle><circle cx="750" cy="310" r="2"></circle><circle cx="50" cy="370" r="2"></circle><circle cx="120" cy="370" r="2"></circle><circle cx="190" cy="370" r="2"></circle><circle cx="260" cy="370" r="2"></circle><circle cx="330" cy="370" r="2"></circle><circle cx="400" cy="370" r="2"></circle><circle cx="470" cy="370" r="2"></circle><circle cx="540" cy="370" r="2"></circle><circle cx="610" cy="370" r="2"></circle><circle cx="680" cy="370" r="2"></circle><circle cx="750" cy="370" r="2"></circle><circle cx="50" cy="430" r="2"></circle><circle cx="120" cy="430" r="2"></circle><circle cx="190" cy="430" r="2"></circle><circle cx="260" cy="430" r="2"></circle><circle cx="330" cy="430" r="2"></circle><circle cx="400" cy="430" r="2"></circle><circle cx="470" cy="430" r="2"></circle><circle cx="540" cy="430" r="2"></circle><circle cx="610" cy="430" r="2"></circle><circle cx="680" cy="430" r="2"></circle><circle cx="750" cy="430" r="2"></circle><circle cx="50" cy="490" r="2"></circle><circle cx="120" cy="490" r="2"></circle><circle cx="190" cy="490" r="2"></circle><circle cx="260" cy="490" r="2"></circle><circle cx="330" cy="490" r="2"></circle><circle cx="400" cy="490" r="2"></circle><circle cx="470" cy="490" r="2"></circle><circle cx="540" cy="490" r="2"></circle><circle cx="610" cy="490" r="2"></circle><circle cx="680" cy="490" r="2"></circle><circle cx="750" cy="490" r="2"></circle><circle cx="50" cy="550" r="2"></circle><circle cx="120" cy="550" r="2"></circle><circle cx="190" cy="550" r="2"></circle><circle cx="260" cy="550" r="2"></circle><circle cx="330" cy="550" r="2"></circle><circle cx="400" cy="550" r="2"></circle><circle cx="470" cy="550" r="2"></circle><circle cx="540" cy="550" r="2"></circle><circle cx="610" cy="550" r="2"></circle><circle cx="680" cy="550" r="2"></circle><circle cx="750" cy="550" r="2"></circle><circle cx="50" cy="610" r="2"></circle><circle cx="120" cy="610" r="2"></circle><circle cx="190" cy="610" r="2"></circle><circle cx="260" cy="610" r="2"></circle><circle cx="330" cy="610" r="2"></circle><circle cx="400" cy="610" r="2"></circle><circle cx="470" cy="610" r="2"></circle><circle cx="540" cy="610" r="2"></circle><circle cx="610" cy="610" r="2"></circle><circle cx="680" cy="610" r="2"></circle><circle cx="750" cy="610" r="2"></circle><circle cx="50" cy="670" r="2"></circle><circle cx="120" cy="670" r="2"></circle><circle cx="190" cy="670" r="2"></circle><circle cx="260" cy="670" r="2"></circle><circle cx="330" cy="670" r="2"></circle><circle cx="400" cy="670" r="2"></circle><circle cx="470" cy="670" r="2"></circle><circle cx="540" cy="670" r="2"></circle><circle cx="610" cy="670" r="2"></circle><circle cx="680" cy="670" r="2"></circle><circle cx="750" cy="670" r="2"></circle><circle cx="50" cy="730" r="2"></circle><circle cx="120" cy="730" r="2"></circle><circle cx="190" cy="730" r="2"></circle><circle cx="260" cy="730" r="2"></circle><circle cx="330" cy="730" r="2"></circle><circle cx="400" cy="730" r="2"></circle><circle cx="470" cy="730" r="2"></circle><circle cx="540" cy="730" r="2"></circle><circle cx="610" cy="730" r="2"></circle><circle cx="680" cy="730" r="2"></circle><circle cx="750" cy="730" r="2"></circle><circle cx="50" cy="790" r="2"></circle><circle cx="120" cy="790" r="2"></circle><circle cx="190" cy="790" r="2"></circle><circle cx="260" cy="790" r="2"></circle><circle cx="330" cy="790" r="2"></circle><circle cx="400" cy="790" r="2"></circle><circle cx="470" cy="790" r="2"></circle><circle cx="540" cy="790" r="2"></circle><circle cx="610" cy="790" r="2"></circle><circle cx="680" cy="790" r="2"></circle><circle cx="750" cy="790" r="2"></circle><circle cx="50" cy="850" r="2"></circle><circle cx="120" cy="850" r="2"></circle><circle cx="190" cy="850" r="2"></circle><circle cx="260" cy="850" r="2"></circle><circle cx="330" cy="850" r="2"></circle><circle cx="400" cy="850" r="2"></circle><circle cx="470" cy="850" r="2"></circle><circle cx="540" cy="850" r="2"></circle><circle cx="610" cy="850" r="2"></circle><circle cx="680" cy="850" r="2"></circle><circle cx="750" cy="850" r="2"></circle><circle cx="50" cy="910" r="2"></circle><circle cx="120" cy="910" r="2"></circle><circle cx="190" cy="910" r="2"></circle><circle cx="260" cy="910" r="2"></circle><circle cx="330" cy="910" r="2"></circle><circle cx="400" cy="910" r="2"></circle><circle cx="470" cy="910" r="2"></circle><circle cx="540" cy="910" r="2"></circle><circle cx="610" cy="910" r="2"></circle><circle cx="680" cy="910" r="2"></circle><circle cx="750" cy="910" r="2"></circle></g>
    <g transform="translate(400 380)">
      
      <path d="M -100 30 L -160 90 L -140 220 L -120 240 L -120 480 L 120 480 L 120 240 L 140 220 L 160 90 L 100 30 L 60 0 L -60 0 L -100 30 Z" fill="#d8cab0"></path>
      
      <path d="M -20 -2 L -10 28 L 10 28 L 20 -2 Z" fill="#d8cab0" stroke="#c9a96e" stroke-width="1.2"></path>
      
      <line x1="0" y1="30" x2="0" y2="470" stroke="#c9a96e" stroke-width="1" opacity="0.5"></line>
      <circle cx="0" cy="80" r="2.5" fill="#c9a96e"></circle>
      <circle cx="0" cy="150" r="2.5" fill="#c9a96e"></circle>
      <circle cx="0" cy="220" r="2.5" fill="#c9a96e"></circle>
      <circle cx="0" cy="290" r="2.5" fill="#c9a96e"></circle>
      
      <rect x="40" y="80" width="44" height="56" fill="none" stroke="#c9a96e" stroke-width="1" opacity="0.5"></rect>
    </g>
  
    <text x="56" y="92" font-family="Georgia, &#39;Cormorant Garamond&#39;, serif" font-style="italic" font-size="34" fill="#c9a96e">N° 20</text>
    <text x="56" y="952" font-family="system-ui,sans-serif" font-size="14" fill="#1a1410" opacity="0.55" letter-spacing="3">CHEMISE LIN</text>
    <text x="744" y="952" text-anchor="end" font-family="system-ui,sans-serif" font-size="11" fill="#1a1410" opacity="0.45" letter-spacing="3">DIDALLAH · DAKAR</text>
  </svg>