<svg xmlns="http://www.w3.org/2000/svg" viewBox="0 0 800 1000" preserveAspectRatio="xMidYMid slice">
    <rect width="800" height="1000" fill="#d4c5a7"></rect>
    
    <g opacity="0.04" stroke="#1a1410" stroke-width="1"><line x1="30" y1="120" x2="30" y2="900"></line><line x1="62" y1="120" x2="62" y2="900"></line><line x1="94" y1="120" x2="94" y2="900"></line><line x1="126" y1="120" x2="126" y2="900"></line><line x1="158" y1="120" x2="158" y2="900"></line><line x1="190" y1="120" x2="190" y2="900"></line><line x1="222" y1="120" x2="222" y2="900"></line><line x1="254" y1="120" x2="254" y2="900"></line><line x1="286" y1="120" x2="286" y2="900"></line><line x1="318" y1="120" x2="318" y2="900"></line><line x1="350" y1="120" x2="350" y2="900"></line><line x1="382" y1="120" x2="382" y2="900"></line><line x1="414" y1="120" x2="414" y2="900"></line><line x1="446" y1="120" x2="446" y2="900"></line><line x1="478" y1="120" x2="478" y2="900"></line><line x1="510" y1="120" x2="510" y2="900"></line><line x1="542" y1="120" x2="542" y2="900"></line><line x1="574" y1="120" x2="574" y2="900"></line><line x1="606" y1="120" x2="606" y2="900"></line><line x1="638" y1="120" x2="638" y2="900"></line><line x1="670" y1="120" x2="670" y2="900"></line><line x1="702" y1="120" x2="702" y2="900"></line><line x1="734" y1="120" x2="734" y2="900"></line><line x1="766" y1="120" x2="766" y2="900"></line><line x1="798" y1="120" x2="798" y2="900"></line></g>
    
    <ellipse cx="400" cy="880" rx="200" ry="22" fill="#1a1410" opacity="0.1"></ellipse>
    
    <rect x="290" y="360" width="220" height="440" rx="14" fill="#3a2618"></rect>
    
    <rect x="308" y="390" width="14" height="360" rx="6" fill="#f4ede4" opacity="0.18"></rect>
    
    <rect x="325" y="500" width="150" height="120" fill="#f4ede4" opacity="0.92"></rect>
    <text x="400" y="548" text-anchor="middle" font-family="Georgia, serif" font-style="italic" font-size="22" fill="#1a1410">DiDallah</text>
    <line x1="350" y1="565" x2="450" y2="565" stroke="#8a6b3a" stroke-width="1"></line>
    <text x="400" y="592" text-anchor="middle" font-family="system-ui,sans-serif" font-size="9" letter-spacing="3" fill="#1a1410" opacity="0.7">EAU DE PARFUM</text>
    <text x="400" y="606" text-anchor="middle" font-family="system-ui,sans-serif" font-size="9" letter-spacing="3" fill="#1a1410" opacity="0.5">50 ML</text>
    
    <rect x="368" y="330" width="64" height="30" fill="#3a2618"></rect>
    
    <rect x="358" y="280" width="84" height="56" rx="6" fill="#c9a96e"></rect>
    <rect x="358" y="320" width="84" height="14" fill="#8a6b3a" opacity="0.5"></rect>
  
    <text x="56" y="92" font-family="Georgia, &#39;Cormorant Garamond&#39;, serif" font-style="italic" font-size="34" fill="#8a6b3a">N° 02</text>
    <text x="56" y="952" font-family="system-ui,sans-serif" font-size="14" fill="#1a1410" opacity="0.55" letter-spacing="3">PARFUMERIE · SIGNATURE</text>
    <text x="744" y="952" text-anchor="end" font-family="system-ui,sans-serif" font-size="11" fill="#1a1410" opacity="0.45" letter-spacing="3">DIDALLAH · DAKAR</text>
  </svg>