<svg xmlns="http://www.w3.org/2000/svg" viewBox="0 0 800 1000" preserveAspectRatio="xMidYMid slice">
    <rect width="800" height="1000" fill="#d4c5a7"></rect>
    
    <g opacity="0.07" fill="none" stroke="#8a6b3a" stroke-width="1.5"><path d="M0 100 Q 20 88 40 100 Q 60 112 80 100 Q 100 88 120 100 Q 140 112 160 100 Q 180 88 200 100 Q 220 112 240 100 Q 260 88 280 100 Q 300 112 320 100 Q 340 88 360 100 Q 380 112 400 100 Q 420 88 440 100 Q 460 112 480 100 Q 500 88 520 100 Q 540 112 560 100 Q 580 88 600 100 Q 620 112 640 100 Q 660 88 680 100 Q 700 112 720 100 Q 740 88 760 100 Q 780 112 800 100 Q 820 88 840 100 "></path><path d="M0 132 Q 20 120 40 132 Q 60 144 80 132 Q 100 120 120 132 Q 140 144 160 132 Q 180 120 200 132 Q 220 144 240 132 Q 260 120 280 132 Q 300 144 320 132 Q 340 120 360 132 Q 380 144 400 132 Q 420 120 440 132 Q 460 144 480 132 Q 500 120 520 132 Q 540 144 560 132 Q 580 120 600 132 Q 620 144 640 132 Q 660 120 680 132 Q 700 144 720 132 Q 740 120 760 132 Q 780 144 800 132 Q 820 120 840 132 "></path><path d="M0 164 Q 20 152 40 164 Q 60 176 80 164 Q 100 152 120 164 Q 140 176 160 164 Q 180 152 200 164 Q 220 176 240 164 Q 260 152 280 164 Q 300 176 320 164 Q 340 152 360 164 Q 380 176 400 164 Q 420 152 440 164 Q 460 176 480 164 Q 500 152 520 164 Q 540 176 560 164 Q 580 152 600 164 Q 620 176 640 164 Q 660 152 680 164 Q 700 176 720 164 Q 740 152 760 164 Q 780 176 800 164 Q 820 152 840 164 "></path><path d="M0 196 Q 20 184 40 196 Q 60 208 80 196 Q 100 184 120 196 Q 140 208 160 196 Q 180 184 200 196 Q 220 208 240 196 Q 260 184 280 196 Q 300 208 320 196 Q 340 184 360 196 Q 380 208 400 196 Q 420 184 440 196 Q 460 208 480 196 Q 500 184 520 196 Q 540 208 560 196 Q 580 184 600 196 Q 620 208 640 196 Q 660 184 680 196 Q 700 208 720 196 Q 740 184 760 196 Q 780 208 800 196 Q 820 184 840 196 "></path><path d="M0 228 Q 20 216 40 228 Q 60 240 80 228 Q 100 216 120 228 Q 140 240 160 228 Q 180 216 200 228 Q 220 240 240 228 Q 260 216 280 228 Q 300 240 320 228 Q 340 216 360 228 Q 380 240 400 228 Q 420 216 440 228 Q 460 240 480 228 Q 500 216 520 228 Q 540 240 560 228 Q 580 216 600 228 Q 620 240 640 228 Q 660 216 680 228 Q 700 240 720 228 Q 740 216 760 228 Q 780 240 800 228 Q 820 216 840 228 "></path><path d="M0 260 Q 20 248 40 260 Q 60 272 80 260 Q 100 248 120 260 Q 140 272 160 260 Q 180 248 200 260 Q 220 272 240 260 Q 260 248 280 260 Q 300 272 320 260 Q 340 248 360 260 Q 380 272 400 260 Q 420 248 440 260 Q 460 272 480 260 Q 500 248 520 260 Q 540 272 560 260 Q 580 248 600 260 Q 620 272 640 260 Q 660 248 680 260 Q 700 272 720 260 Q 740 248 760 260 Q 780 272 800 260 Q 820 248 840 260 "></path><path d="M0 292 Q 20 280 40 292 Q 60 304 80 292 Q 100 280 120 292 Q 140 304 160 292 Q 180 280 200 292 Q 220 304 240 292 Q 260 280 280 292 Q 300 304 320 292 Q 340 280 360 292 Q 380 304 400 292 Q 420 280 440 292 Q 460 304 480 292 Q 500 280 520 292 Q 540 304 560 292 Q 580 280 600 292 Q 620 304 640 292 Q 660 280 680 292 Q 700 304 720 292 Q 740 280 760 292 Q 780 304 800 292 Q 820 280 840 292 "></path><path d="M0 324 Q 20 312 40 324 Q 60 336 80 324 Q 100 312 120 324 Q 140 336 160 324 Q 180 312 200 324 Q 220 336 240 324 Q 260 312 280 324 Q 300 336 320 324 Q 340 312 360 324 Q 380 336 400 324 Q 420 312 440 324 Q 460 336 480 324 Q 500 312 520 324 Q 540 336 560 324 Q 580 312 600 324 Q 620 336 640 324 Q 660 312 680 324 Q 700 336 720 324 Q 740 312 760 324 Q 780 336 800 324 Q 820 312 840 324 "></path><path d="M0 356 Q 20 344 40 356 Q 60 368 80 356 Q 100 344 120 356 Q 140 368 160 356 Q 180 344 200 356 Q 220 368 240 356 Q 260 344 280 356 Q 300 368 320 356 Q 340 344 360 356 Q 380 368 400 356 Q 420 344 440 356 Q 460 368 480 356 Q 500 344 520 356 Q 540 368 560 356 Q 580 344 600 356 Q 620 368 640 356 Q 660 344 680 356 Q 700 368 720 356 Q 740 344 760 356 Q 780 368 800 356 Q 820 344 840 356 "></path><path d="M0 388 Q 20 376 40 388 Q 60 400 80 388 Q 100 376 120 388 Q 140 400 160 388 Q 180 376 200 388 Q 220 400 240 388 Q 260 376 280 388 Q 300 400 320 388 Q 340 376 360 388 Q 380 400 400 388 Q 420 376 440 388 Q 460 400 480 388 Q 500 376 520 388 Q 540 400 560 388 Q 580 376 600 388 Q 620 400 640 388 Q 660 376 680 388 Q 700 400 720 388 Q 740 376 760 388 Q 780 400 800 388 Q 820 376 840 388 "></path><path d="M0 420 Q 20 408 40 420 Q 60 432 80 420 Q 100 408 120 420 Q 140 432 160 420 Q 180 408 200 420 Q 220 432 240 420 Q 260 408 280 420 Q 300 432 320 420 Q 340 408 360 420 Q 380 432 400 420 Q 420 408 440 420 Q 460 432 480 420 Q 500 408 520 420 Q 540 432 560 420 Q 580 408 600 420 Q 620 432 640 420 Q 660 408 680 420 Q 700 432 720 420 Q 740 408 760 420 Q 780 432 800 420 Q 820 408 840 420 "></path><path d="M0 452 Q 20 440 40 452 Q 60 464 80 452 Q 100 440 120 452 Q 140 464 160 452 Q 180 440 200 452 Q 220 464 240 452 Q 260 440 280 452 Q 300 464 320 452 Q 340 440 360 452 Q 380 464 400 452 Q 420 440 440 452 Q 460 464 480 452 Q 500 440 520 452 Q 540 464 560 452 Q 580 440 600 452 Q 620 464 640 452 Q 660 440 680 452 Q 700 464 720 452 Q 740 440 760 452 Q 780 464 800 452 Q 820 440 840 452 "></path><path d="M0 484 Q 20 472 40 484 Q 60 496 80 484 Q 100 472 120 484 Q 140 496 160 484 Q 180 472 200 484 Q 220 496 240 484 Q 260 472 280 484 Q 300 496 320 484 Q 340 472 360 484 Q 380 496 400 484 Q 420 472 440 484 Q 460 496 480 484 Q 500 472 520 484 Q 540 496 560 484 Q 580 472 600 484 Q 620 496 640 484 Q 660 472 680 484 Q 700 496 720 484 Q 740 472 760 484 Q 780 496 800 484 Q 820 472 840 484 "></path><path d="M0 516 Q 20 504 40 516 Q 60 528 80 516 Q 100 504 120 516 Q 140 528 160 516 Q 180 504 200 516 Q 220 528 240 516 Q 260 504 280 516 Q 300 528 320 516 Q 340 504 360 516 Q 380 528 400 516 Q 420 504 440 516 Q 460 528 480 516 Q 500 504 520 516 Q 540 528 560 516 Q 580 504 600 516 Q 620 528 640 516 Q 660 504 680 516 Q 700 528 720 516 Q 740 504 760 516 Q 780 528 800 516 Q 820 504 840 516 "></path><path d="M0 548 Q 20 536 40 548 Q 60 560 80 548 Q 100 536 120 548 Q 140 560 160 548 Q 180 536 200 548 Q 220 560 240 548 Q 260 536 280 548 Q 300 560 320 548 Q 340 536 360 548 Q 380 560 400 548 Q 420 536 440 548 Q 460 560 480 548 Q 500 536 520 548 Q 540 560 560 548 Q 580 536 600 548 Q 620 560 640 548 Q 660 536 680 548 Q 700 560 720 548 Q 740 536 760 548 Q 780 560 800 548 Q 820 536 840 548 "></path><path d="M0 580 Q 20 568 40 580 Q 60 592 80 580 Q 100 568 120 580 Q 140 592 160 580 Q 180 568 200 580 Q 220 592 240 580 Q 260 568 280 580 Q 300 592 320 580 Q 340 568 360 580 Q 380 592 400 580 Q 420 568 440 580 Q 460 592 480 580 Q 500 568 520 580 Q 540 592 560 580 Q 580 568 600 580 Q 620 592 640 580 Q 660 568 680 580 Q 700 592 720 580 Q 740 568 760 580 Q 780 592 800 580 Q 820 568 840 580 "></path><path d="M0 612 Q 20 600 40 612 Q 60 624 80 612 Q 100 600 120 612 Q 140 624 160 612 Q 180 600 200 612 Q 220 624 240 612 Q 260 600 280 612 Q 300 624 320 612 Q 340 600 360 612 Q 380 624 400 612 Q 420 600 440 612 Q 460 624 480 612 Q 500 600 520 612 Q 540 624 560 612 Q 580 600 600 612 Q 620 624 640 612 Q 660 600 680 612 Q 700 624 720 612 Q 740 600 760 612 Q 780 624 800 612 Q 820 600 840 612 "></path><path d="M0 644 Q 20 632 40 644 Q 60 656 80 644 Q 100 632 120 644 Q 140 656 160 644 Q 180 632 200 644 Q 220 656 240 644 Q 260 632 280 644 Q 300 656 320 644 Q 340 632 360 644 Q 380 656 400 644 Q 420 632 440 644 Q 460 656 480 644 Q 500 632 520 644 Q 540 656 560 644 Q 580 632 600 644 Q 620 656 640 644 Q 660 632 680 644 Q 700 656 720 644 Q 740 632 760 644 Q 780 656 800 644 Q 820 632 840 644 "></path><path d="M0 676 Q 20 664 40 676 Q 60 688 80 676 Q 100 664 120 676 Q 140 688 160 676 Q 180 664 200 676 Q 220 688 240 676 Q 260 664 280 676 Q 300 688 320 676 Q 340 664 360 676 Q 380 688 400 676 Q 420 664 440 676 Q 460 688 480 676 Q 500 664 520 676 Q 540 688 560 676 Q 580 664 600 676 Q 620 688 640 676 Q 660 664 680 676 Q 700 688 720 676 Q 740 664 760 676 Q 780 688 800 676 Q 820 664 840 676 "></path><path d="M0 708 Q 20 696 40 708 Q 60 720 80 708 Q 100 696 120 708 Q 140 720 160 708 Q 180 696 200 708 Q 220 720 240 708 Q 260 696 280 708 Q 300 720 320 708 Q 340 696 360 708 Q 380 720 400 708 Q 420 696 440 708 Q 460 720 480 708 Q 500 696 520 708 Q 540 720 560 708 Q 580 696 600 708 Q 620 720 640 708 Q 660 696 680 708 Q 700 720 720 708 Q 740 696 760 708 Q 780 720 800 708 Q 820 696 840 708 "></path><path d="M0 740 Q 20 728 40 740 Q 60 752 80 740 Q 100 728 120 740 Q 140 752 160 740 Q 180 728 200 740 Q 220 752 240 740 Q 260 728 280 740 Q 300 752 320 740 Q 340 728 360 740 Q 380 752 400 740 Q 420 728 440 740 Q 460 752 480 740 Q 500 728 520 740 Q 540 752 560 740 Q 580 728 600 740 Q 620 752 640 740 Q 660 728 680 740 Q 700 752 720 740 Q 740 728 760 740 Q 780 752 800 740 Q 820 728 840 740 "></path><path d="M0 772 Q 20 760 40 772 Q 60 784 80 772 Q 100 760 120 772 Q 140 784 160 772 Q 180 760 200 772 Q 220 784 240 772 Q 260 760 280 772 Q 300 784 320 772 Q 340 760 360 772 Q 380 784 400 772 Q 420 760 440 772 Q 460 784 480 772 Q 500 760 520 772 Q 540 784 560 772 Q 580 760 600 772 Q 620 784 640 772 Q 660 760 680 772 Q 700 784 720 772 Q 740 760 760 772 Q 780 784 800 772 Q 820 760 840 772 "></path><path d="M0 804 Q 20 792 40 804 Q 60 816 80 804 Q 100 792 120 804 Q 140 816 160 804 Q 180 792 200 804 Q 220 816 240 804 Q 260 792 280 804 Q 300 816 320 804 Q 340 792 360 804 Q 380 816 400 804 Q 420 792 440 804 Q 460 816 480 804 Q 500 792 520 804 Q 540 816 560 804 Q 580 792 600 804 Q 620 816 640 804 Q 660 792 680 804 Q 700 816 720 804 Q 740 792 760 804 Q 780 816 800 804 Q 820 792 840 804 "></path><path d="M0 836 Q 20 824 40 836 Q 60 848 80 836 Q 100 824 120 836 Q 140 848 160 836 Q 180 824 200 836 Q 220 848 240 836 Q 260 824 280 836 Q 300 848 320 836 Q 340 824 360 836 Q 380 848 400 836 Q 420 824 440 836 Q 460 848 480 836 Q 500 824 520 836 Q 540 848 560 836 Q 580 824 600 836 Q 620 848 640 836 Q 660 824 680 836 Q 700 848 720 836 Q 740 824 760 836 Q 780 848 800 836 Q 820 824 840 836 "></path><path d="M0 868 Q 20 856 40 868 Q 60 880 80 868 Q 100 856 120 868 Q 140 880 160 868 Q 180 856 200 868 Q 220 880 240 868 Q 260 856 280 868 Q 300 880 320 868 Q 340 856 360 868 Q 380 880 400 868 Q 420 856 440 868 Q 460 880 480 868 Q 500 856 520 868 Q 540 880 560 868 Q 580 856 600 868 Q 620 880 640 868 Q 660 856 680 868 Q 700 880 720 868 Q 740 856 760 868 Q 780 880 800 868 Q 820 856 840 868 "></path><path d="M0 900 Q 20 888 40 900 Q 60 912 80 900 Q 100 888 120 900 Q 140 912 160 900 Q 180 888 200 900 Q 220 912 240 900 Q 260 888 280 900 Q 300 912 320 900 Q 340 888 360 900 Q 380 912 400 900 Q 420 888 440 900 Q 460 912 480 900 Q 500 888 520 900 Q 540 912 560 900 Q 580 888 600 900 Q 620 912 640 900 Q 660 888 680 900 Q 700 912 720 900 Q 740 888 760 900 Q 780 912 800 900 Q 820 888 840 900 "></path><path d="M0 932 Q 20 920 40 932 Q 60 944 80 932 Q 100 920 120 932 Q 140 944 160 932 Q 180 920 200 932 Q 220 944 240 932 Q 260 920 280 932 Q 300 944 320 932 Q 340 920 360 932 Q 380 944 400 932 Q 420 920 440 932 Q 460 944 480 932 Q 500 920 520 932 Q 540 944 560 932 Q 580 920 600 932 Q 620 944 640 932 Q 660 920 680 932 Q 700 944 720 932 Q 740 920 760 932 Q 780 944 800 932 Q 820 920 840 932 "></path></g>
    <g transform="translate(400 360)">
      <path d="M -130 30 L -150 540 L 150 540 L 130 30 Q 100 -10 0 -20 Q -100 -10 -130 30 Z" fill="#e2d6b8"></path>
      
      <rect x="-8" y="-15" width="16" height="170" fill="#8a6b3a" opacity="0.4"></rect>
      <line x1="0" y1="-20" x2="0" y2="155" stroke="#c9a96e" stroke-width="1.2" opacity="0.8"></line>
      
      <circle cx="0" cy="50" r="3" fill="#c9a96e"></circle>
      <circle cx="0" cy="100" r="3" fill="#c9a96e"></circle>
      <circle cx="0" cy="150" r="3" fill="#c9a96e"></circle>
      
      <line x1="-150" y1="530" x2="150" y2="530" stroke="#c9a96e" stroke-width="1.5" opacity="0.4"></line>
    </g>
  
    <text x="56" y="92" font-family="Georgia, &#39;Cormorant Garamond&#39;, serif" font-style="italic" font-size="34" fill="#c9a96e">N° 18</text>
    <text x="56" y="952" font-family="system-ui,sans-serif" font-size="14" fill="#1a1410" opacity="0.55" letter-spacing="3">JALLABA CÉRÉMONIE</text>
    <text x="744" y="952" text-anchor="end" font-family="system-ui,sans-serif" font-size="11" fill="#1a1410" opacity="0.45" letter-spacing="3">DIDALLAH · DAKAR</text>
  </svg>