<svg xmlns="http://www.w3.org/2000/svg" viewBox="0 0 800 1000" preserveAspectRatio="xMidYMid slice">
    <rect width="800" height="1000" fill="#e8dac7"></rect>
    
    <g opacity="0.05" fill="#1a1410"><circle cx="50" cy="130" r="2"></circle><circle cx="120" cy="130" r="2"></circle><circle cx="190" cy="130" r="2"></circle><circle cx="260" cy="130" r="2"></circle><circle cx="330" cy="130" r="2"></circle><circle cx="400" cy="130" r="2"></circle><circle cx="470" cy="130" r="2"></circle><circle cx="540" cy="130" r="2"></circle><circle cx="610" cy="130" r="2"></circle><circle cx="680" cy="130" r="2"></circle><circle cx="750" cy="130" r="2"></circle><circle cx="50" cy="190" r="2"></circle><circle cx="120" cy="190" r="2"></circle><circle cx="190" cy="190" r="2"></circle><circle cx="260" cy="190" r="2"></circle><circle cx="330" cy="190" r="2"></circle><circle cx="400" cy="190" r="2"></circle><circle cx="470" cy="190" r="2"></circle><circle cx="540" cy="190" r="2"></circle><circle cx="610" cy="190" r="2"></circle><circle cx="680" cy="190" r="2"></circle><circle cx="750" cy="190" r="2"></circle><circle cx="50" cy="250" r="2"></circle><circle cx="120" cy="250" r="2"></circle><circle cx="190" cy="250" r="2"></circle><circle cx="260" cy="250" r="2"></circle><circle cx="330" cy="250" r="2"></circle><circle cx="400" cy="250" r="2"></circle><circle cx="470" cy="250" r="2"></circle><circle cx="540" cy="250" r="2"></circle><circle cx="610" cy="250" r="2"></circle><circle cx="680" cy="250" r="2"></circle><circle cx="750" cy="250" r="2"></circle><circle cx="50" cy="310" r="2"></circle><circle cx="120" cy="310" r="2"></circle><circle cx="190" cy="310" r="2"></circle><circle cx="260" cy="310" r="2"></circle><circle cx="330" cy="310" r="2"></circle><circle cx="400" cy="310" r="2"></circle><circle cx="470" cy="310" r="2"></circle><circle cx="540" cy="310" r="2"></circle><circle cx="610" cy="310" r="2"></circle><circle cx="680" cy="310" r="2"></circle><circle cx="750" cy="310" r="2"></circle><circle cx="50" cy="370" r="2"></circle><circle cx="120" cy="370" r="2"></circle><circle cx="190" cy="370" r="2"></circle><circle cx="260" cy="370" r="2"></circle><circle cx="330" cy="370" r="2"></circle><circle cx="400" cy="370" r="2"></circle><circle cx="470" cy="370" r="2"></circle><circle cx="540" cy="370" r="2"></circle><circle cx="610" cy="370" r="2"></circle><circle cx="680" cy="370" r="2"></circle><circle cx="750" cy="370" r="2"></circle><circle cx="50" cy="430" r="2"></circle><circle cx="120" cy="430" r="2"></circle><circle cx="190" cy="430" r="2"></circle><circle cx="260" cy="430" r="2"></circle><circle cx="330" cy="430" r="2"></circle><circle cx="400" cy="430" r="2"></circle><circle cx="470" cy="430" r="2"></circle><circle cx="540" cy="430" r="2"></circle><circle cx="610" cy="430" r="2"></circle><circle cx="680" cy="430" r="2"></circle><circle cx="750" cy="430" r="2"></circle><circle cx="50" cy="490" r="2"></circle><circle cx="120" cy="490" r="2"></circle><circle cx="190" cy="490" r="2"></circle><circle cx="260" cy="490" r="2"></circle><circle cx="330" cy="490" r="2"></circle><circle cx="400" cy="490" r="2"></circle><circle cx="470" cy="490" r="2"></circle><circle cx="540" cy="490" r="2"></circle><circle cx="610" cy="490" r="2"></circle><circle cx="680" cy="490" r="2"></circle><circle cx="750" cy="490" r="2"></circle><circle cx="50" cy="550" r="2"></circle><circle cx="120" cy="550" r="2"></circle><circle cx="190" cy="550" r="2"></circle><circle cx="260" cy="550" r="2"></circle><circle cx="330" cy="550" r="2"></circle><circle cx="400" cy="550" r="2"></circle><circle cx="470" cy="550" r="2"></circle><circle cx="540" cy="550" r="2"></circle><circle cx="610" cy="550" r="2"></circle><circle cx="680" cy="550" r="2"></circle><circle cx="750" cy="550" r="2"></circle><circle cx="50" cy="610" r="2"></circle><circle cx="120" cy="610" r="2"></circle><circle cx="190" cy="610" r="2"></circle><circle cx="260" cy="610" r="2"></circle><circle cx="330" cy="610" r="2"></circle><circle cx="400" cy="610" r="2"></circle><circle cx="470" cy="610" r="2"></circle><circle cx="540" cy="610" r="2"></circle><circle cx="610" cy="610" r="2"></circle><circle cx="680" cy="610" r="2"></circle><circle cx="750" cy="610" r="2"></circle><circle cx="50" cy="670" r="2"></circle><circle cx="120" cy="670" r="2"></circle><circle cx="190" cy="670" r="2"></circle><circle cx="260" cy="670" r="2"></circle><circle cx="330" cy="670" r="2"></circle><circle cx="400" cy="670" r="2"></circle><circle cx="470" cy="670" r="2"></circle><circle cx="540" cy="670" r="2"></circle><circle cx="610" cy="670" r="2"></circle><circle cx="680" cy="670" r="2"></circle><circle cx="750" cy="670" r="2"></circle><circle cx="50" cy="730" r="2"></circle><circle cx="120" cy="730" r="2"></circle><circle cx="190" cy="730" r="2"></circle><circle cx="260" cy="730" r="2"></circle><circle cx="330" cy="730" r="2"></circle><circle cx="400" cy="730" r="2"></circle><circle cx="470" cy="730" r="2"></circle><circle cx="540" cy="730" r="2"></circle><circle cx="610" cy="730" r="2"></circle><circle cx="680" cy="730" r="2"></circle><circle cx="750" cy="730" r="2"></circle><circle cx="50" cy="790" r="2"></circle><circle cx="120" cy="790" r="2"></circle><circle cx="190" cy="790" r="2"></circle><circle cx="260" cy="790" r="2"></circle><circle cx="330" cy="790" r="2"></circle><circle cx="400" cy="790" r="2"></circle><circle cx="470" cy="790" r="2"></circle><circle cx="540" cy="790" r="2"></circle><circle cx="610" cy="790" r="2"></circle><circle cx="680" cy="790" r="2"></circle><circle cx="750" cy="790" r="2"></circle><circle cx="50" cy="850" r="2"></circle><circle cx="120" cy="850" r="2"></circle><circle cx="190" cy="850" r="2"></circle><circle cx="260" cy="850" r="2"></circle><circle cx="330" cy="850" r="2"></circle><circle cx="400" cy="850" r="2"></circle><circle cx="470" cy="850" r="2"></circle><circle cx="540" cy="850" r="2"></circle><circle cx="610" cy="850" r="2"></circle><circle cx="680" cy="850" r="2"></circle><circle cx="750" cy="850" r="2"></circle><circle cx="50" cy="910" r="2"></circle><circle cx="120" cy="910" r="2"></circle><circle cx="190" cy="910" r="2"></circle><circle cx="260" cy="910" r="2"></circle><circle cx="330" cy="910" r="2"></circle><circle cx="400" cy="910" r="2"></circle><circle cx="470" cy="910" r="2"></circle><circle cx="540" cy="910" r="2"></circle><circle cx="610" cy="910" r="2"></circle><circle cx="680" cy="910" r="2"></circle><circle cx="750" cy="910" r="2"></circle></g>
    <ellipse cx="400" cy="880" rx="140" ry="14" fill="#1a1410" opacity="0.12"></ellipse>
    
    <path d="M 330 320 Q 310 420 310 570 L 310 830 Q 310 850 330 850 L 470 850 Q 490 850 490 830 L 490 570 Q 490 420 470 320 Z" fill="#1a1410"></path>
    
    <path d="M 320 450 Q 318 510 318 600 L 318 828 Q 318 842 330 842 L 470 842 Q 482 842 482 828 L 482 600 Q 482 510 480 450 Z" fill="#e89bb0" opacity="0.8"></path>
    
    <rect x="372" y="250" width="56" height="80" fill="#1a1410"></rect>
    
    <rect x="364" y="210" width="72" height="44" rx="4" fill="#8a6b3a"></rect>
    <line x1="370" y1="234" x2="430" y2="234" stroke="#f4ede4" stroke-width="1" opacity="0.4"></line>
    
    <rect x="324" y="600" width="152" height="180" fill="#f4ede4"></rect>
    <text x="400" y="646" text-anchor="middle" font-family="Georgia, serif" font-style="italic" font-size="20" fill="#1a1410">Huile</text>
    <text x="400" y="672" text-anchor="middle" font-family="Georgia, serif" font-size="14" fill="#1a1410">DiDallah</text>
    <line x1="364" y1="698" x2="436" y2="698" stroke="#8a6b3a"></line>
    <text x="400" y="720" text-anchor="middle" font-family="system-ui,sans-serif" font-size="9" letter-spacing="3" fill="#1a1410" opacity="0.7">PRESSÉE</text>
    <text x="400" y="736" text-anchor="middle" font-family="system-ui,sans-serif" font-size="9" letter-spacing="3" fill="#1a1410" opacity="0.7">À FROID</text>
    <text x="400" y="762" text-anchor="middle" font-family="system-ui,sans-serif" font-size="9" letter-spacing="2" fill="#1a1410" opacity="0.5">100 ML</text>
  
    <text x="56" y="92" font-family="Georgia, &#39;Cormorant Garamond&#39;, serif" font-style="italic" font-size="34" fill="#c9a96e">N° 14</text>
    <text x="56" y="952" font-family="system-ui,sans-serif" font-size="14" fill="#1a1410" opacity="0.55" letter-spacing="3">LOTION HIBISCUS</text>
    <text x="744" y="952" text-anchor="end" font-family="system-ui,sans-serif" font-size="11" fill="#1a1410" opacity="0.45" letter-spacing="3">DIDALLAH · DAKAR</text>
  </svg>