<svg xmlns="http://www.w3.org/2000/svg" viewBox="0 0 800 1000" preserveAspectRatio="xMidYMid slice">
    <rect width="800" height="1000" fill="#e8dac7"></rect>
    
    <g opacity="0.04" fill="#1a1410"><circle cx="50" cy="130" r="2"></circle><circle cx="120" cy="130" r="2"></circle><circle cx="190" cy="130" r="2"></circle><circle cx="260" cy="130" r="2"></circle><circle cx="330" cy="130" r="2"></circle><circle cx="400" cy="130" r="2"></circle><circle cx="470" cy="130" r="2"></circle><circle cx="540" cy="130" r="2"></circle><circle cx="610" cy="130" r="2"></circle><circle cx="680" cy="130" r="2"></circle><circle cx="750" cy="130" r="2"></circle><circle cx="50" cy="190" r="2"></circle><circle cx="120" cy="190" r="2"></circle><circle cx="190" cy="190" r="2"></circle><circle cx="260" cy="190" r="2"></circle><circle cx="330" cy="190" r="2"></circle><circle cx="400" cy="190" r="2"></circle><circle cx="470" cy="190" r="2"></circle><circle cx="540" cy="190" r="2"></circle><circle cx="610" cy="190" r="2"></circle><circle cx="680" cy="190" r="2"></circle><circle cx="750" cy="190" r="2"></circle><circle cx="50" cy="250" r="2"></circle><circle cx="120" cy="250" r="2"></circle><circle cx="190" cy="250" r="2"></circle><circle cx="260" cy="250" r="2"></circle><circle cx="330" cy="250" r="2"></circle><circle cx="400" cy="250" r="2"></circle><circle cx="470" cy="250" r="2"></circle><circle cx="540" cy="250" r="2"></circle><circle cx="610" cy="250" r="2"></circle><circle cx="680" cy="250" r="2"></circle><circle cx="750" cy="250" r="2"></circle><circle cx="50" cy="310" r="2"></circle><circle cx="120" cy="310" r="2"></circle><circle cx="190" cy="310" r="2"></circle><circle cx="260" cy="310" r="2"></circle><circle cx="330" cy="310" r="2"></circle><circle cx="400" cy="310" r="2"></circle><circle cx="470" cy="310" r="2"></circle><circle cx="540" cy="310" r="2"></circle><circle cx="610" cy="310" r="2"></circle><circle cx="680" cy="310" r="2"></circle><circle cx="750" cy="310" r="2"></circle><circle cx="50" cy="370" r="2"></circle><circle cx="120" cy="370" r="2"></circle><circle cx="190" cy="370" r="2"></circle><circle cx="260" cy="370" r="2"></circle><circle cx="330" cy="370" r="2"></circle><circle cx="400" cy="370" r="2"></circle><circle cx="470" cy="370" r="2"></circle><circle cx="540" cy="370" r="2"></circle><circle cx="610" cy="370" r="2"></circle><circle cx="680" cy="370" r="2"></circle><circle cx="750" cy="370" r="2"></circle><circle cx="50" cy="430" r="2"></circle><circle cx="120" cy="430" r="2"></circle><circle cx="190" cy="430" r="2"></circle><circle cx="260" cy="430" r="2"></circle><circle cx="330" cy="430" r="2"></circle><circle cx="400" cy="430" r="2"></circle><circle cx="470" cy="430" r="2"></circle><circle cx="540" cy="430" r="2"></circle><circle cx="610" cy="430" r="2"></circle><circle cx="680" cy="430" r="2"></circle><circle cx="750" cy="430" r="2"></circle><circle cx="50" cy="490" r="2"></circle><circle cx="120" cy="490" r="2"></circle><circle cx="190" cy="490" r="2"></circle><circle cx="260" cy="490" r="2"></circle><circle cx="330" cy="490" r="2"></circle><circle cx="400" cy="490" r="2"></circle><circle cx="470" cy="490" r="2"></circle><circle cx="540" cy="490" r="2"></circle><circle cx="610" cy="490" r="2"></circle><circle cx="680" cy="490" r="2"></circle><circle cx="750" cy="490" r="2"></circle><circle cx="50" cy="550" r="2"></circle><circle cx="120" cy="550" r="2"></circle><circle cx="190" cy="550" r="2"></circle><circle cx="260" cy="550" r="2"></circle><circle cx="330" cy="550" r="2"></circle><circle cx="400" cy="550" r="2"></circle><circle cx="470" cy="550" r="2"></circle><circle cx="540" cy="550" r="2"></circle><circle cx="610" cy="550" r="2"></circle><circle cx="680" cy="550" r="2"></circle><circle cx="750" cy="550" r="2"></circle><circle cx="50" cy="610" r="2"></circle><circle cx="120" cy="610" r="2"></circle><circle cx="190" cy="610" r="2"></circle><circle cx="260" cy="610" r="2"></circle><circle cx="330" cy="610" r="2"></circle><circle cx="400" cy="610" r="2"></circle><circle cx="470" cy="610" r="2"></circle><circle cx="540" cy="610" r="2"></circle><circle cx="610" cy="610" r="2"></circle><circle cx="680" cy="610" r="2"></circle><circle cx="750" cy="610" r="2"></circle><circle cx="50" cy="670" r="2"></circle><circle cx="120" cy="670" r="2"></circle><circle cx="190" cy="670" r="2"></circle><circle cx="260" cy="670" r="2"></circle><circle cx="330" cy="670" r="2"></circle><circle cx="400" cy="670" r="2"></circle><circle cx="470" cy="670" r="2"></circle><circle cx="540" cy="670" r="2"></circle><circle cx="610" cy="670" r="2"></circle><circle cx="680" cy="670" r="2"></circle><circle cx="750" cy="670" r="2"></circle><circle cx="50" cy="730" r="2"></circle><circle cx="120" cy="730" r="2"></circle><circle cx="190" cy="730" r="2"></circle><circle cx="260" cy="730" r="2"></circle><circle cx="330" cy="730" r="2"></circle><circle cx="400" cy="730" r="2"></circle><circle cx="470" cy="730" r="2"></circle><circle cx="540" cy="730" r="2"></circle><circle cx="610" cy="730" r="2"></circle><circle cx="680" cy="730" r="2"></circle><circle cx="750" cy="730" r="2"></circle><circle cx="50" cy="790" r="2"></circle><circle cx="120" cy="790" r="2"></circle><circle cx="190" cy="790" r="2"></circle><circle cx="260" cy="790" r="2"></circle><circle cx="330" cy="790" r="2"></circle><circle cx="400" cy="790" r="2"></circle><circle cx="470" cy="790" r="2"></circle><circle cx="540" cy="790" r="2"></circle><circle cx="610" cy="790" r="2"></circle><circle cx="680" cy="790" r="2"></circle><circle cx="750" cy="790" r="2"></circle><circle cx="50" cy="850" r="2"></circle><circle cx="120" cy="850" r="2"></circle><circle cx="190" cy="850" r="2"></circle><circle cx="260" cy="850" r="2"></circle><circle cx="330" cy="850" r="2"></circle><circle cx="400" cy="850" r="2"></circle><circle cx="470" cy="850" r="2"></circle><circle cx="540" cy="850" r="2"></circle><circle cx="610" cy="850" r="2"></circle><circle cx="680" cy="850" r="2"></circle><circle cx="750" cy="850" r="2"></circle><circle cx="50" cy="910" r="2"></circle><circle cx="120" cy="910" r="2"></circle><circle cx="190" cy="910" r="2"></circle><circle cx="260" cy="910" r="2"></circle><circle cx="330" cy="910" r="2"></circle><circle cx="400" cy="910" r="2"></circle><circle cx="470" cy="910" r="2"></circle><circle cx="540" cy="910" r="2"></circle><circle cx="610" cy="910" r="2"></circle><circle cx="680" cy="910" r="2"></circle><circle cx="750" cy="910" r="2"></circle></g>
    <ellipse cx="400" cy="800" rx="200" ry="18" fill="#1a1410" opacity="0.12"></ellipse>
    <g transform="translate(400 540)">
      
      <path d="M -80 -180 Q -80 -260 0 -260 Q 80 -260 80 -180" stroke="#1a1410" stroke-width="10" fill="none"></path>
      
      <rect x="-200" y="-180" width="400" height="280" rx="20" fill="#1a1410"></rect>
      
      <path d="M -150 -100 Q 0 -120 150 -100" stroke="#c9a96e" stroke-width="2" fill="none" opacity="0.85"></path>
      <path d="M -120 -60 Q 0 -82 120 -60" stroke="#c9a96e" stroke-width="1.5" fill="none" opacity="0.7"></path>
      <circle cx="-100" cy="-20" r="6" fill="#c9a96e"></circle>
      <circle cx="-30" cy="-30" r="7" fill="#c9a96e"></circle>
      <circle cx="40" cy="-22" r="6" fill="#c9a96e"></circle>
      <circle cx="100" cy="-30" r="7" fill="#c9a96e"></circle>
      
      <rect x="-30" y="-200" width="60" height="14" rx="2" fill="#c9a96e"></rect>
    </g>
  
    <text x="56" y="92" font-family="Georgia, &#39;Cormorant Garamond&#39;, serif" font-style="italic" font-size="34" fill="#c9a96e">N° 23</text>
    <text x="56" y="952" font-family="system-ui,sans-serif" font-size="14" fill="#1a1410" opacity="0.55" letter-spacing="3">SAC ÉDITION DAKAR</text>
    <text x="744" y="952" text-anchor="end" font-family="system-ui,sans-serif" font-size="11" fill="#1a1410" opacity="0.45" letter-spacing="3">DIDALLAH · DAKAR</text>
  </svg>