<svg xmlns="http://www.w3.org/2000/svg" viewBox="0 0 800 1000" preserveAspectRatio="xMidYMid slice">
    <rect width="800" height="1000" fill="#d4c5a7"></rect>
    
    <g opacity="0.05" fill="#1a1410"><circle cx="50" cy="130" r="2"></circle><circle cx="120" cy="130" r="2"></circle><circle cx="190" cy="130" r="2"></circle><circle cx="260" cy="130" r="2"></circle><circle cx="330" cy="130" r="2"></circle><circle cx="400" cy="130" r="2"></circle><circle cx="470" cy="130" r="2"></circle><circle cx="540" cy="130" r="2"></circle><circle cx="610" cy="130" r="2"></circle><circle cx="680" cy="130" r="2"></circle><circle cx="750" cy="130" r="2"></circle><circle cx="50" cy="190" r="2"></circle><circle cx="120" cy="190" r="2"></circle><circle cx="190" cy="190" r="2"></circle><circle cx="260" cy="190" r="2"></circle><circle cx="330" cy="190" r="2"></circle><circle cx="400" cy="190" r="2"></circle><circle cx="470" cy="190" r="2"></circle><circle cx="540" cy="190" r="2"></circle><circle cx="610" cy="190" r="2"></circle><circle cx="680" cy="190" r="2"></circle><circle cx="750" cy="190" r="2"></circle><circle cx="50" cy="250" r="2"></circle><circle cx="120" cy="250" r="2"></circle><circle cx="190" cy="250" r="2"></circle><circle cx="260" cy="250" r="2"></circle><circle cx="330" cy="250" r="2"></circle><circle cx="400" cy="250" r="2"></circle><circle cx="470" cy="250" r="2"></circle><circle cx="540" cy="250" r="2"></circle><circle cx="610" cy="250" r="2"></circle><circle cx="680" cy="250" r="2"></circle><circle cx="750" cy="250" r="2"></circle><circle cx="50" cy="310" r="2"></circle><circle cx="120" cy="310" r="2"></circle><circle cx="190" cy="310" r="2"></circle><circle cx="260" cy="310" r="2"></circle><circle cx="330" cy="310" r="2"></circle><circle cx="400" cy="310" r="2"></circle><circle cx="470" cy="310" r="2"></circle><circle cx="540" cy="310" r="2"></circle><circle cx="610" cy="310" r="2"></circle><circle cx="680" cy="310" r="2"></circle><circle cx="750" cy="310" r="2"></circle><circle cx="50" cy="370" r="2"></circle><circle cx="120" cy="370" r="2"></circle><circle cx="190" cy="370" r="2"></circle><circle cx="260" cy="370" r="2"></circle><circle cx="330" cy="370" r="2"></circle><circle cx="400" cy="370" r="2"></circle><circle cx="470" cy="370" r="2"></circle><circle cx="540" cy="370" r="2"></circle><circle cx="610" cy="370" r="2"></circle><circle cx="680" cy="370" r="2"></circle><circle cx="750" cy="370" r="2"></circle><circle cx="50" cy="430" r="2"></circle><circle cx="120" cy="430" r="2"></circle><circle cx="190" cy="430" r="2"></circle><circle cx="260" cy="430" r="2"></circle><circle cx="330" cy="430" r="2"></circle><circle cx="400" cy="430" r="2"></circle><circle cx="470" cy="430" r="2"></circle><circle cx="540" cy="430" r="2"></circle><circle cx="610" cy="430" r="2"></circle><circle cx="680" cy="430" r="2"></circle><circle cx="750" cy="430" r="2"></circle><circle cx="50" cy="490" r="2"></circle><circle cx="120" cy="490" r="2"></circle><circle cx="190" cy="490" r="2"></circle><circle cx="260" cy="490" r="2"></circle><circle cx="330" cy="490" r="2"></circle><circle cx="400" cy="490" r="2"></circle><circle cx="470" cy="490" r="2"></circle><circle cx="540" cy="490" r="2"></circle><circle cx="610" cy="490" r="2"></circle><circle cx="680" cy="490" r="2"></circle><circle cx="750" cy="490" r="2"></circle><circle cx="50" cy="550" r="2"></circle><circle cx="120" cy="550" r="2"></circle><circle cx="190" cy="550" r="2"></circle><circle cx="260" cy="550" r="2"></circle><circle cx="330" cy="550" r="2"></circle><circle cx="400" cy="550" r="2"></circle><circle cx="470" cy="550" r="2"></circle><circle cx="540" cy="550" r="2"></circle><circle cx="610" cy="550" r="2"></circle><circle cx="680" cy="550" r="2"></circle><circle cx="750" cy="550" r="2"></circle><circle cx="50" cy="610" r="2"></circle><circle cx="120" cy="610" r="2"></circle><circle cx="190" cy="610" r="2"></circle><circle cx="260" cy="610" r="2"></circle><circle cx="330" cy="610" r="2"></circle><circle cx="400" cy="610" r="2"></circle><circle cx="470" cy="610" r="2"></circle><circle cx="540" cy="610" r="2"></circle><circle cx="610" cy="610" r="2"></circle><circle cx="680" cy="610" r="2"></circle><circle cx="750" cy="610" r="2"></circle><circle cx="50" cy="670" r="2"></circle><circle cx="120" cy="670" r="2"></circle><circle cx="190" cy="670" r="2"></circle><circle cx="260" cy="670" r="2"></circle><circle cx="330" cy="670" r="2"></circle><circle cx="400" cy="670" r="2"></circle><circle cx="470" cy="670" r="2"></circle><circle cx="540" cy="670" r="2"></circle><circle cx="610" cy="670" r="2"></circle><circle cx="680" cy="670" r="2"></circle><circle cx="750" cy="670" r="2"></circle><circle cx="50" cy="730" r="2"></circle><circle cx="120" cy="730" r="2"></circle><circle cx="190" cy="730" r="2"></circle><circle cx="260" cy="730" r="2"></circle><circle cx="330" cy="730" r="2"></circle><circle cx="400" cy="730" r="2"></circle><circle cx="470" cy="730" r="2"></circle><circle cx="540" cy="730" r="2"></circle><circle cx="610" cy="730" r="2"></circle><circle cx="680" cy="730" r="2"></circle><circle cx="750" cy="730" r="2"></circle><circle cx="50" cy="790" r="2"></circle><circle cx="120" cy="790" r="2"></circle><circle cx="190" cy="790" r="2"></circle><circle cx="260" cy="790" r="2"></circle><circle cx="330" cy="790" r="2"></circle><circle cx="400" cy="790" r="2"></circle><circle cx="470" cy="790" r="2"></circle><circle cx="540" cy="790" r="2"></circle><circle cx="610" cy="790" r="2"></circle><circle cx="680" cy="790" r="2"></circle><circle cx="750" cy="790" r="2"></circle><circle cx="50" cy="850" r="2"></circle><circle cx="120" cy="850" r="2"></circle><circle cx="190" cy="850" r="2"></circle><circle cx="260" cy="850" r="2"></circle><circle cx="330" cy="850" r="2"></circle><circle cx="400" cy="850" r="2"></circle><circle cx="470" cy="850" r="2"></circle><circle cx="540" cy="850" r="2"></circle><circle cx="610" cy="850" r="2"></circle><circle cx="680" cy="850" r="2"></circle><circle cx="750" cy="850" r="2"></circle><circle cx="50" cy="910" r="2"></circle><circle cx="120" cy="910" r="2"></circle><circle cx="190" cy="910" r="2"></circle><circle cx="260" cy="910" r="2"></circle><circle cx="330" cy="910" r="2"></circle><circle cx="400" cy="910" r="2"></circle><circle cx="470" cy="910" r="2"></circle><circle cx="540" cy="910" r="2"></circle><circle cx="610" cy="910" r="2"></circle><circle cx="680" cy="910" r="2"></circle><circle cx="750" cy="910" r="2"></circle></g>
    
    <ellipse cx="400" cy="690" rx="220" ry="18" fill="#1a1410" opacity="0.12"></ellipse>
    <path d="M 180 530 Q 160 670 220 690 L 580 690 Q 640 670 620 530 Q 620 480 560 480 L 240 480 Q 180 480 180 530 Z" fill="#1a1410"></path>
    
    <path d="M 200 500 Q 400 460 600 500" stroke="#8a6b3a" stroke-width="1" fill="none" opacity="0.4"></path>
    
    <text x="400" y="610" text-anchor="middle" font-family="Georgia, serif" font-style="italic" font-size="38" fill="#c9a96e" opacity="0.8">DiDallah</text>
    <line x1="330" y1="630" x2="470" y2="630" stroke="#c9a96e" opacity="0.5"></line>
    <text x="400" y="652" text-anchor="middle" font-family="system-ui,sans-serif" font-size="10" letter-spacing="4" fill="#c9a96e" opacity="0.6">SAVON NOIR</text>
  
    <text x="56" y="92" font-family="Georgia, &#39;Cormorant Garamond&#39;, serif" font-style="italic" font-size="34" fill="#c9a96e">N° 12</text>
    <text x="56" y="952" font-family="system-ui,sans-serif" font-size="14" fill="#1a1410" opacity="0.55" letter-spacing="3">SAVON NOIR</text>
    <text x="744" y="952" text-anchor="end" font-family="system-ui,sans-serif" font-size="11" fill="#1a1410" opacity="0.45" letter-spacing="3">DIDALLAH · DAKAR</text>
  </svg>