<svg xmlns="http://www.w3.org/2000/svg" viewBox="0 0 800 1000" preserveAspectRatio="xMidYMid slice">
    <rect width="800" height="1000" fill="#1f1815"></rect>
    
    <g opacity="0.06" fill="none" stroke="#e0c690" stroke-width="2"><path d="M45 10 L80 45 L45 80 L10 45 Z"></path><path d="M45 25 L65 45 L45 65 L25 45 Z"></path><path d="M135 10 L170 45 L135 80 L100 45 Z"></path><path d="M135 25 L155 45 L135 65 L115 45 Z"></path><path d="M225 10 L260 45 L225 80 L190 45 Z"></path><path d="M225 25 L245 45 L225 65 L205 45 Z"></path><path d="M315 10 L350 45 L315 80 L280 45 Z"></path><path d="M315 25 L335 45 L315 65 L295 45 Z"></path><path d="M405 10 L440 45 L405 80 L370 45 Z"></path><path d="M405 25 L425 45 L405 65 L385 45 Z"></path><path d="M495 10 L530 45 L495 80 L460 45 Z"></path><path d="M495 25 L515 45 L495 65 L475 45 Z"></path><path d="M585 10 L620 45 L585 80 L550 45 Z"></path><path d="M585 25 L605 45 L585 65 L565 45 Z"></path><path d="M675 10 L710 45 L675 80 L640 45 Z"></path><path d="M675 25 L695 45 L675 65 L655 45 Z"></path><path d="M765 10 L800 45 L765 80 L730 45 Z"></path><path d="M765 25 L785 45 L765 65 L745 45 Z"></path><path d="M45 100 L80 135 L45 170 L10 135 Z"></path><path d="M45 115 L65 135 L45 155 L25 135 Z"></path><path d="M135 100 L170 135 L135 170 L100 135 Z"></path><path d="M135 115 L155 135 L135 155 L115 135 Z"></path><path d="M225 100 L260 135 L225 170 L190 135 Z"></path><path d="M225 115 L245 135 L225 155 L205 135 Z"></path><path d="M315 100 L350 135 L315 170 L280 135 Z"></path><path d="M315 115 L335 135 L315 155 L295 135 Z"></path><path d="M405 100 L440 135 L405 170 L370 135 Z"></path><path d="M405 115 L425 135 L405 155 L385 135 Z"></path><path d="M495 100 L530 135 L495 170 L460 135 Z"></path><path d="M495 115 L515 135 L495 155 L475 135 Z"></path><path d="M585 100 L620 135 L585 170 L550 135 Z"></path><path d="M585 115 L605 135 L585 155 L565 135 Z"></path><path d="M675 100 L710 135 L675 170 L640 135 Z"></path><path d="M675 115 L695 135 L675 155 L655 135 Z"></path><path d="M765 100 L800 135 L765 170 L730 135 Z"></path><path d="M765 115 L785 135 L765 155 L745 135 Z"></path><path d="M45 190 L80 225 L45 260 L10 225 Z"></path><path d="M45 205 L65 225 L45 245 L25 225 Z"></path><path d="M135 190 L170 225 L135 260 L100 225 Z"></path><path d="M135 205 L155 225 L135 245 L115 225 Z"></path><path d="M225 190 L260 225 L225 260 L190 225 Z"></path><path d="M225 205 L245 225 L225 245 L205 225 Z"></path><path d="M315 190 L350 225 L315 260 L280 225 Z"></path><path d="M315 205 L335 225 L315 245 L295 225 Z"></path><path d="M405 190 L440 225 L405 260 L370 225 Z"></path><path d="M405 205 L425 225 L405 245 L385 225 Z"></path><path d="M495 190 L530 225 L495 260 L460 225 Z"></path><path d="M495 205 L515 225 L495 245 L475 225 Z"></path><path d="M585 190 L620 225 L585 260 L550 225 Z"></path><path d="M585 205 L605 225 L585 245 L565 225 Z"></path><path d="M675 190 L710 225 L675 260 L640 225 Z"></path><path d="M675 205 L695 225 L675 245 L655 225 Z"></path><path d="M765 190 L800 225 L765 260 L730 225 Z"></path><path d="M765 205 L785 225 L765 245 L745 225 Z"></path><path d="M45 280 L80 315 L45 350 L10 315 Z"></path><path d="M45 295 L65 315 L45 335 L25 315 Z"></path><path d="M135 280 L170 315 L135 350 L100 315 Z"></path><path d="M135 295 L155 315 L135 335 L115 315 Z"></path><path d="M225 280 L260 315 L225 350 L190 315 Z"></path><path d="M225 295 L245 315 L225 335 L205 315 Z"></path><path d="M315 280 L350 315 L315 350 L280 315 Z"></path><path d="M315 295 L335 315 L315 335 L295 315 Z"></path><path d="M405 280 L440 315 L405 350 L370 315 Z"></path><path d="M405 295 L425 315 L405 335 L385 315 Z"></path><path d="M495 280 L530 315 L495 350 L460 315 Z"></path><path d="M495 295 L515 315 L495 335 L475 315 Z"></path><path d="M585 280 L620 315 L585 350 L550 315 Z"></path><path d="M585 295 L605 315 L585 335 L565 315 Z"></path><path d="M675 280 L710 315 L675 350 L640 315 Z"></path><path d="M675 295 L695 315 L675 335 L655 315 Z"></path><path d="M765 280 L800 315 L765 350 L730 315 Z"></path><path d="M765 295 L785 315 L765 335 L745 315 Z"></path><path d="M45 370 L80 405 L45 440 L10 405 Z"></path><path d="M45 385 L65 405 L45 425 L25 405 Z"></path><path d="M135 370 L170 405 L135 440 L100 405 Z"></path><path d="M135 385 L155 405 L135 425 L115 405 Z"></path><path d="M225 370 L260 405 L225 440 L190 405 Z"></path><path d="M225 385 L245 405 L225 425 L205 405 Z"></path><path d="M315 370 L350 405 L315 440 L280 405 Z"></path><path d="M315 385 L335 405 L315 425 L295 405 Z"></path><path d="M405 370 L440 405 L405 440 L370 405 Z"></path><path d="M405 385 L425 405 L405 425 L385 405 Z"></path><path d="M495 370 L530 405 L495 440 L460 405 Z"></path><path d="M495 385 L515 405 L495 425 L475 405 Z"></path><path d="M585 370 L620 405 L585 440 L550 405 Z"></path><path d="M585 385 L605 405 L585 425 L565 405 Z"></path><path d="M675 370 L710 405 L675 440 L640 405 Z"></path><path d="M675 385 L695 405 L675 425 L655 405 Z"></path><path d="M765 370 L800 405 L765 440 L730 405 Z"></path><path d="M765 385 L785 405 L765 425 L745 405 Z"></path><path d="M45 460 L80 495 L45 530 L10 495 Z"></path><path d="M45 475 L65 495 L45 515 L25 495 Z"></path><path d="M135 460 L170 495 L135 530 L100 495 Z"></path><path d="M135 475 L155 495 L135 515 L115 495 Z"></path><path d="M225 460 L260 495 L225 530 L190 495 Z"></path><path d="M225 475 L245 495 L225 515 L205 495 Z"></path><path d="M315 460 L350 495 L315 530 L280 495 Z"></path><path d="M315 475 L335 495 L315 515 L295 495 Z"></path><path d="M405 460 L440 495 L405 530 L370 495 Z"></path><path d="M405 475 L425 495 L405 515 L385 495 Z"></path><path d="M495 460 L530 495 L495 530 L460 495 Z"></path><path d="M495 475 L515 495 L495 515 L475 495 Z"></path><path d="M585 460 L620 495 L585 530 L550 495 Z"></path><path d="M585 475 L605 495 L585 515 L565 495 Z"></path><path d="M675 460 L710 495 L675 530 L640 495 Z"></path><path d="M675 475 L695 495 L675 515 L655 495 Z"></path><path d="M765 460 L800 495 L765 530 L730 495 Z"></path><path d="M765 475 L785 495 L765 515 L745 495 Z"></path><path d="M45 550 L80 585 L45 620 L10 585 Z"></path><path d="M45 565 L65 585 L45 605 L25 585 Z"></path><path d="M135 550 L170 585 L135 620 L100 585 Z"></path><path d="M135 565 L155 585 L135 605 L115 585 Z"></path><path d="M225 550 L260 585 L225 620 L190 585 Z"></path><path d="M225 565 L245 585 L225 605 L205 585 Z"></path><path d="M315 550 L350 585 L315 620 L280 585 Z"></path><path d="M315 565 L335 585 L315 605 L295 585 Z"></path><path d="M405 550 L440 585 L405 620 L370 585 Z"></path><path d="M405 565 L425 585 L405 605 L385 585 Z"></path><path d="M495 550 L530 585 L495 620 L460 585 Z"></path><path d="M495 565 L515 585 L495 605 L475 585 Z"></path><path d="M585 550 L620 585 L585 620 L550 585 Z"></path><path d="M585 565 L605 585 L585 605 L565 585 Z"></path><path d="M675 550 L710 585 L675 620 L640 585 Z"></path><path d="M675 565 L695 585 L675 605 L655 585 Z"></path><path d="M765 550 L800 585 L765 620 L730 585 Z"></path><path d="M765 565 L785 585 L765 605 L745 585 Z"></path><path d="M45 640 L80 675 L45 710 L10 675 Z"></path><path d="M45 655 L65 675 L45 695 L25 675 Z"></path><path d="M135 640 L170 675 L135 710 L100 675 Z"></path><path d="M135 655 L155 675 L135 695 L115 675 Z"></path><path d="M225 640 L260 675 L225 710 L190 675 Z"></path><path d="M225 655 L245 675 L225 695 L205 675 Z"></path><path d="M315 640 L350 675 L315 710 L280 675 Z"></path><path d="M315 655 L335 675 L315 695 L295 675 Z"></path><path d="M405 640 L440 675 L405 710 L370 675 Z"></path><path d="M405 655 L425 675 L405 695 L385 675 Z"></path><path d="M495 640 L530 675 L495 710 L460 675 Z"></path><path d="M495 655 L515 675 L495 695 L475 675 Z"></path><path d="M585 640 L620 675 L585 710 L550 675 Z"></path><path d="M585 655 L605 675 L585 695 L565 675 Z"></path><path d="M675 640 L710 675 L675 710 L640 675 Z"></path><path d="M675 655 L695 675 L675 695 L655 675 Z"></path><path d="M765 640 L800 675 L765 710 L730 675 Z"></path><path d="M765 655 L785 675 L765 695 L745 675 Z"></path><path d="M45 730 L80 765 L45 800 L10 765 Z"></path><path d="M45 745 L65 765 L45 785 L25 765 Z"></path><path d="M135 730 L170 765 L135 800 L100 765 Z"></path><path d="M135 745 L155 765 L135 785 L115 765 Z"></path><path d="M225 730 L260 765 L225 800 L190 765 Z"></path><path d="M225 745 L245 765 L225 785 L205 765 Z"></path><path d="M315 730 L350 765 L315 800 L280 765 Z"></path><path d="M315 745 L335 765 L315 785 L295 765 Z"></path><path d="M405 730 L440 765 L405 800 L370 765 Z"></path><path d="M405 745 L425 765 L405 785 L385 765 Z"></path><path d="M495 730 L530 765 L495 800 L460 765 Z"></path><path d="M495 745 L515 765 L495 785 L475 765 Z"></path><path d="M585 730 L620 765 L585 800 L550 765 Z"></path><path d="M585 745 L605 765 L585 785 L565 765 Z"></path><path d="M675 730 L710 765 L675 800 L640 765 Z"></path><path d="M675 745 L695 765 L675 785 L655 765 Z"></path><path d="M765 730 L800 765 L765 800 L730 765 Z"></path><path d="M765 745 L785 765 L765 785 L745 765 Z"></path><path d="M45 820 L80 855 L45 890 L10 855 Z"></path><path d="M45 835 L65 855 L45 875 L25 855 Z"></path><path d="M135 820 L170 855 L135 890 L100 855 Z"></path><path d="M135 835 L155 855 L135 875 L115 855 Z"></path><path d="M225 820 L260 855 L225 890 L190 855 Z"></path><path d="M225 835 L245 855 L225 875 L205 855 Z"></path><path d="M315 820 L350 855 L315 890 L280 855 Z"></path><path d="M315 835 L335 855 L315 875 L295 855 Z"></path><path d="M405 820 L440 855 L405 890 L370 855 Z"></path><path d="M405 835 L425 855 L405 875 L385 855 Z"></path><path d="M495 820 L530 855 L495 890 L460 855 Z"></path><path d="M495 835 L515 855 L495 875 L475 855 Z"></path><path d="M585 820 L620 855 L585 890 L550 855 Z"></path><path d="M585 835 L605 855 L585 875 L565 855 Z"></path><path d="M675 820 L710 855 L675 890 L640 855 Z"></path><path d="M675 835 L695 855 L675 875 L655 855 Z"></path><path d="M765 820 L800 855 L765 890 L730 855 Z"></path><path d="M765 835 L785 855 L765 875 L745 855 Z"></path><path d="M45 910 L80 945 L45 980 L10 945 Z"></path><path d="M45 925 L65 945 L45 965 L25 945 Z"></path><path d="M135 910 L170 945 L135 980 L100 945 Z"></path><path d="M135 925 L155 945 L135 965 L115 945 Z"></path><path d="M225 910 L260 945 L225 980 L190 945 Z"></path><path d="M225 925 L245 945 L225 965 L205 945 Z"></path><path d="M315 910 L350 945 L315 980 L280 945 Z"></path><path d="M315 925 L335 945 L315 965 L295 945 Z"></path><path d="M405 910 L440 945 L405 980 L370 945 Z"></path><path d="M405 925 L425 945 L405 965 L385 945 Z"></path><path d="M495 910 L530 945 L495 980 L460 945 Z"></path><path d="M495 925 L515 945 L495 965 L475 945 Z"></path><path d="M585 910 L620 945 L585 980 L550 945 Z"></path><path d="M585 925 L605 945 L585 965 L565 945 Z"></path><path d="M675 910 L710 945 L675 980 L640 945 Z"></path><path d="M675 925 L695 945 L675 965 L655 945 Z"></path><path d="M765 910 L800 945 L765 980 L730 945 Z"></path><path d="M765 925 L785 945 L765 965 L745 945 Z"></path><path d="M45 1000 L80 1035 L45 1070 L10 1035 Z"></path><path d="M45 1015 L65 1035 L45 1055 L25 1035 Z"></path><path d="M135 1000 L170 1035 L135 1070 L100 1035 Z"></path><path d="M135 1015 L155 1035 L135 1055 L115 1035 Z"></path><path d="M225 1000 L260 1035 L225 1070 L190 1035 Z"></path><path d="M225 1015 L245 1035 L225 1055 L205 1035 Z"></path><path d="M315 1000 L350 1035 L315 1070 L280 1035 Z"></path><path d="M315 1015 L335 1035 L315 1055 L295 1035 Z"></path><path d="M405 1000 L440 1035 L405 1070 L370 1035 Z"></path><path d="M405 1015 L425 1035 L405 1055 L385 1035 Z"></path><path d="M495 1000 L530 1035 L495 1070 L460 1035 Z"></path><path d="M495 1015 L515 1035 L495 1055 L475 1035 Z"></path><path d="M585 1000 L620 1035 L585 1070 L550 1035 Z"></path><path d="M585 1015 L605 1035 L585 1055 L565 1035 Z"></path><path d="M675 1000 L710 1035 L675 1070 L640 1035 Z"></path><path d="M675 1015 L695 1035 L675 1055 L655 1035 Z"></path><path d="M765 1000 L800 1035 L765 1070 L730 1035 Z"></path><path d="M765 1015 L785 1035 L765 1055 L745 1035 Z"></path></g>
    <g transform="translate(400 540)">
      <ellipse cx="0" cy="-250" rx="60" ry="76" fill="#8a6b3a"></ellipse>
      <path d="M -68 -260 Q -110 -320 -50 -340 Q 0 -360 50 -340 Q 110 -320 70 -250 Q 30 -220 0 -230 Q -30 -220 -68 -260 Z" fill="#e0c690" opacity="0.7"></path>
      <path d="M -40 -310 Q 0 -330 40 -310" stroke="#e0c690" stroke-width="2" fill="none"></path>
      <rect x="-18" y="-178" width="36" height="40" fill="#8a6b3a"></rect>
      <path d="M -140 -150 Q -180 -100 -200 80 Q -220 220 -220 380 L 220 380 Q 220 220 200 80 Q 180 -100 140 -150 Q 70 -170 0 -160 Q -70 -170 -140 -150 Z" fill="#8a6b3a"></path>
      <line x1="0" y1="-130" x2="0" y2="200" stroke="#e0c690" stroke-width="2" opacity="0.5"></line>
      <circle cx="0" cy="-90" r="5" fill="#e0c690"></circle>
      <circle cx="0" cy="0" r="4" fill="#e0c690" opacity="0.7"></circle>
      <circle cx="0" cy="100" r="4" fill="#e0c690" opacity="0.6"></circle>
    </g>
    <g transform="translate(110 880)" opacity="0.85">
      <rect x="-50" y="-22" width="100" height="32" fill="#e0c690"></rect>
      <text text-anchor="middle" y="0" font-family="Georgia, serif" font-style="italic" font-size="16" fill="#1a1410">@didallah</text>
    </g>
  
    
    <text x="56" y="952" font-family="system-ui,sans-serif" font-size="14" fill="#f4ede4" opacity="0.55" letter-spacing="3">SÉRUM CAPILLAIRE</text>
    <text x="744" y="952" text-anchor="end" font-family="system-ui,sans-serif" font-size="11" fill="#f4ede4" opacity="0.45" letter-spacing="3">DIDALLAH · DAKAR</text>
  </svg>